<?xml version="1.0" encoding="utf-8"?>
<!-- Generator: Adobe Illustrator 23.0.1, SVG Export Plug-In . SVG Version: 6.00 Build 0)  -->
<svg version="1.1" id="Layer_1" xmlns="http://www.w3.org/2000/svg" xmlns:xlink="http://www.w3.org/1999/xlink" x="0px" y="0px"
	 viewBox="0 0 472.2 472.2" style="enable-background:new 0 0 472.2 472.2;" xml:space="preserve">
<style type="text/css">
	.st0{fill:none;stroke:#757575;stroke-width:5;stroke-miterlimit:10;}
</style>
<circle class="st0" cx="236.1" cy="236.1" r="233.6"/>
<g>
	<path class="st0" d="M86.9,113.7l20,35c0.7,1.2,1.8,2,3.1,2.4l18.6,4.7l63.9,63.9l7.1-7.1l-64.9-64.9c-0.6-0.6-1.4-1.1-2.3-1.3
		l-17.9-4.5l-17-29.8L112,97.5l29.8,17l4.5,17.9c0.2,0.9,0.7,1.7,1.3,2.3l64.9,64.9l7.1-7.1l-63.9-63.9L151,110
		c-0.3-1.3-1.2-2.5-2.4-3.1l-35-20c-1.9-1.1-4.4-0.8-6,0.8l-20,20C86.1,109.3,85.8,111.7,86.9,113.7z"/>
	<path class="st0" d="M294.5,184.7L184.7,294.5l-7.1-7.1l109.9-109.9L294.5,184.7z"/>
	<path class="st0" d="M165.4,298.4c-0.9-1.5-2.5-2.4-4.3-2.4h-30c-1.8,0-3.4,0.9-4.3,2.4l-15,25c-1,1.6-1,3.6,0,5.1l15,25
		c0.9,1.5,2.5,2.4,4.3,2.4h30c1.8,0,3.4-0.9,4.3-2.4l15-25c1-1.6,1-3.6,0-5.1L165.4,298.4z M158.3,345.9H134l-12-20l12-20h24.3
		l12,20L158.3,345.9z"/>
	<path class="st0" d="M325.9,206.1c33,0.1,59.8-26.5,59.9-59.5c0-5-0.6-10-1.8-14.9c-0.7-2.7-3.4-4.3-6.1-3.6
		c-0.9,0.2-1.7,0.7-2.3,1.3l-31.1,31.1l-24.7-8.2l-8.2-24.7l31.1-31.1c1.9-2,1.9-5.1,0-7.1c-0.6-0.6-1.5-1.1-2.3-1.3
		c-32-8.1-64.5,11.3-72.6,43.2c-1.2,4.9-1.8,9.8-1.8,14.8c0,3.9,0.4,7.9,1.2,11.7L157.9,267.2c-3.8-0.8-7.8-1.2-11.7-1.2
		c-33.1,0-59.9,26.8-59.9,59.9c0,33.1,26.8,59.9,59.9,59.9c33.1,0,59.9-26.8,59.9-59.9c0-3.9-0.4-7.9-1.2-11.7l26.2-26.2l11.5,11.5
		c2,1.9,5.1,1.9,7.1,0l2.5-2.5c2.2-2.2,5.7-2.2,7.9,0c2.2,2.2,2.2,5.7,0,7.9c0,0,0,0,0,0l-2.5,2.5c-1.9,1.9-1.9,5.1,0,7.1l59.6,59.6
		c15.7,15.8,41.2,15.9,57,0.3c15.8-15.7,15.9-41.2,0.3-57c-0.1-0.1-0.2-0.2-0.3-0.3l-59.6-59.6c-1.9-1.9-5.1-1.9-7.1,0l-2.5,2.5
		c-2.2,2.2-5.7,2.2-7.9,0c-2.2-2.2-2.2-5.7,0-7.9c0,0,0,0,0,0l2.5-2.5c1.9-1.9,1.9-5.1,0-7.1l-11.5-11.5l26.2-26.2
		C318.1,205.7,322,206.1,325.9,206.1z M345.6,375.9c-3.6,0-7.2-0.7-10.6-1.9l39-39c5.9,15.7-2,33.1-17.7,39
		C352.8,375.2,349.2,375.9,345.6,375.9z M289,246.1c-5.5,6.6-4.7,16.4,1.9,22c5.8,4.9,14.2,4.9,20,0l56,56.1
		c0.6,0.6,1.2,1.3,1.7,1.9L326,368.7c-0.7-0.5-1.3-1.1-1.9-1.7L268,310.9c5.5-6.6,4.7-16.4-1.9-22c-5.8-4.9-14.2-4.9-20,0l-8-8
		l42.9-42.9L289,246.1z M309.2,195.9L195.9,309.1c-1.2,1.2-1.7,3-1.3,4.7c6.9,26.9-9.4,54.3-36.3,61.1c-26.9,6.9-54.3-9.4-61.1-36.3
		c-6.8-26.9,9.4-54.3,36.3-61.1c8.1-2.1,16.7-2.1,24.8,0c1.7,0.4,3.5-0.1,4.7-1.3L276.2,163c1.2-1.2,1.7-3,1.3-4.7
		c-6.8-26.6,9.2-53.7,35.8-60.5c5-1.3,10.2-1.8,15.4-1.5l-26.3,26.4c-1.3,1.3-1.8,3.3-1.2,5.1l10,30c0.5,1.5,1.7,2.7,3.2,3.2l30,10
		c1.8,0.6,3.8,0.1,5.1-1.2l26.3-26.3c0.1,1,0.1,1.9,0.1,2.8c0.1,27.4-22,49.8-49.4,49.9c-4.2,0-8.5-0.5-12.6-1.6
		C312.2,194.1,310.4,194.6,309.2,195.9L309.2,195.9L309.2,195.9z"/>
	<path class="st0" d="M344.5,337.4l-7.1,7.1l-49.9-49.9l7.1-7.1L344.5,337.4z"/>
</g>
</svg>
