<svg width="46" height="38" viewBox="0 0 46 38" fill="none" xmlns="http://www.w3.org/2000/svg">
<path d="M29.56 25.56C28.8962 26.5301 28.0268 27.342 27.0136 27.9379C26.0004 28.5339 24.8683 28.8992 23.6979 29.008C22.5275 29.1167 21.3475 28.9662 20.2418 28.5672C19.1362 28.1681 18.132 27.5303 17.3008 26.6992C16.4697 25.868 15.8319 24.8638 15.4328 23.7582C15.0338 22.6525 14.8833 21.4725 14.992 20.3021C15.1008 19.1317 15.4661 17.9996 16.0621 16.9864C16.658 15.9732 17.4699 15.1038 18.44 14.44M41 37H5C3.93913 37 2.92172 36.5786 2.17157 35.8284C1.42143 35.0783 1 34.0609 1 33V11C1 9.93913 1.42143 8.92172 2.17157 8.17157C2.92172 7.42143 3.93913 7 5 7H11L41 37ZM17 1H29L33 7H41C42.0609 7 43.0783 7.42143 43.8284 8.17157C44.5786 8.92172 45 9.93913 45 11V29.68L17 1Z" stroke="#414141" stroke-width="2" stroke-linecap="round" stroke-linejoin="round"/>
</svg>
