<?xml version="1.0" encoding="utf-8"?>
<!-- Generator: Adobe Illustrator 24.1.0, SVG Export Plug-In . SVG Version: 6.00 Build 0)  -->
<svg version="1.1" id="Layer_1" xmlns="http://www.w3.org/2000/svg" xmlns:xlink="http://www.w3.org/1999/xlink" x="0px" y="0px"
	 viewBox="0 0 44 34" style="enable-background:new 0 0 44 34;" xml:space="preserve">
<style type="text/css">
	.st0{fill:#818181;}
</style>
<g>
	<g>
		<path class="st0" d="M42.7,31.5h-2.6v-17c0-0.7-0.6-1.3-1.3-1.3h-7.1c-0.7,0-1.3,0.6-1.3,1.3v17h-3.5v-22c0-0.7-0.6-1.3-1.3-1.3
			h-7.1c-0.7,0-1.3,0.6-1.3,1.3v22h-3.5V13.1c0-0.7-0.6-1.3-1.3-1.3H5.2c-0.7,0-1.3,0.6-1.3,1.3v18.3H1.3C0.6,31.5,0,32,0,32.7
			C0,33.4,0.6,34,1.3,34h41.4c0.7,0,1.3-0.6,1.3-1.3C44,32,43.4,31.5,42.7,31.5L42.7,31.5z M6.5,31.5V14.4H11v17.1H6.5z M19.7,31.5
			V10.7h4.5v20.8H19.7z M33,31.5V15.7h4.5v15.7H33z"/>
	</g>
	<path class="st0" d="M43.1,4.8c0-0.5-0.3-1.2-1-1.4l-4.2-1c-0.7-0.2-1.4,0.3-1.6,0.9c-0.2,0.7,0.3,1.4,0.9,1.5l1.2,0.3l-3.3,2
		L22.5,0.2c-0.4-0.2-0.8-0.2-1.2,0L8.7,6l-6-3.7C2.1,1.9,1.3,2.1,0.9,2.7C0.5,3.3,0.7,4,1.3,4.4l6.6,4.1c0.4,0.2,0.8,0.3,1.2,0.1
		l12.6-5.9l12.8,7.2c0.3,0.2,0.8,0.3,1.3,0l4.1-2.5l-0.3,1.2c-0.3,1.7,2.1,2.1,2.5,0.5L43,5C43,5,43,5,43.1,4.8L43.1,4.8z"/>
</g>
</svg>
