<svg xmlns="http://www.w3.org/2000/svg" viewBox="0 0 24 21" width="24" height="21">
	<style>
		tspan { white-space:pre }
		.shp0 { fill: #f88634 } 
	</style>
	<g id="Main Content">
		<g id="1">
			<g id="Image content">
				<path id="Forma 1" class="shp0" d="M22.1 2.86C20.9 1.66 19.3 1 17.59 1C15.89 1 14.29 1.66 13.08 2.86L12.49 3.45L11.89 2.86C10.69 1.66 9.08 1 7.38 1C5.67 1 4.07 1.66 2.87 2.86C0.38 5.34 0.38 9.36 2.87 11.84L11.78 20.71C11.93 20.86 12.11 20.95 12.3 20.98C12.36 20.99 12.43 21 12.49 21C12.74 21 13 20.9 13.19 20.71L22.1 11.84C24.59 9.36 24.59 5.34 22.1 2.86ZM20.71 10.45L12.49 18.64L4.26 10.45C2.54 8.74 2.54 5.96 4.26 4.25C5.09 3.42 6.2 2.96 7.38 2.96C8.56 2.96 9.66 3.42 10.5 4.25L11.79 5.53C12.16 5.9 12.81 5.9 13.18 5.53L14.47 4.25C15.31 3.42 16.41 2.96 17.59 2.96C18.77 2.96 19.88 3.42 20.71 4.25C22.43 5.96 22.43 8.74 20.71 10.45Z" />
			</g>
		</g>
	</g>
</svg>